<?xml version="1.0" standalone="no"?>
<!DOCTYPE svg PUBLIC "-//W3C//DTD SVG 20010904//EN"
 "http://www.w3.org/TR/2001/REC-SVG-20010904/DTD/svg10.dtd">
<svg version="1.0" xmlns="http://www.w3.org/2000/svg"
 width="776.000000pt" height="616.000000pt" viewBox="0 0 776.000000 616.000000"
 preserveAspectRatio="xMidYMid meet">

<g transform="translate(0.000000,616.000000) scale(0.100000,-0.100000)"
fill="#000000" stroke="none">
<path d="M3830 4629 c-566 -54 -1043 -408 -1267 -939 -208 -494 -138 -1077
182 -1506 315 -423 838 -661 1349 -614 590 53 1065 398 1293 940 158 376 158
817 -2 1189 -226 530 -701 874 -1284 931 -114 11 -147 11 -271 -1z m348 -104
c268 -40 490 -137 692 -300 407 -328 607 -852 520 -1360 -26 -152 -52 -237
-111 -363 -105 -226 -223 -377 -411 -529 -96 -77 -151 -111 -279 -173 -496
-237 -1084 -169 -1509 175 -407 328 -607 852 -520 1360 26 152 52 237 111 363
105 226 223 377 411 529 98 79 153 112 288 176 255 120 540 163 808 122z"/>
<path d="M3509 3407 c-315 -205 -414 -275 -405 -284 8 -8 743 -493 813 -536
16 -10 11 4 -51 136 -25 54 -46 100 -46 102 0 2 16 -1 35 -6 20 -6 233 -9 522
-7 480 3 489 3 529 25 99 53 139 144 132 302 -5 110 -24 158 -82 209 -68 60
-90 62 -610 62 -279 0 -485 -4 -505 -10 -19 -5 -36 -8 -38 -6 -2 1 20 51 47
111 52 110 81 175 77 175 -1 0 -189 -123 -418 -273z m135 -127 c-35 -77 -64
-145 -64 -151 0 -6 29 -73 64 -150 35 -76 59 -136 53 -132 -53 31 -423 276
-424 281 -2 5 424 292 434 292 1 0 -28 -63 -63 -140z m1249 -9 l42 -40 3 -115
4 -115 -40 -43 -41 -43 -505 -3 -506 -3 -43 40 -42 40 -3 114 -4 114 33 38
c18 20 42 41 53 45 12 5 243 9 514 9 l493 1 42 -39z"/>
</g>
</svg>
