<?xml version="1.0" standalone="no"?>
<!DOCTYPE svg PUBLIC "-//W3C//DTD SVG 20010904//EN"
 "http://www.w3.org/TR/2001/REC-SVG-20010904/DTD/svg10.dtd">
<svg version="1.0" xmlns="http://www.w3.org/2000/svg"
 width="776.000000pt" height="616.000000pt" viewBox="0 0 776.000000 616.000000"
 preserveAspectRatio="xMidYMid meet">

<g transform="translate(0.000000,616.000000) scale(0.100000,-0.100000)"
fill="#000000" stroke="none">
<path d="M3830 4629 c-566 -54 -1043 -408 -1267 -939 -208 -494 -138 -1077
182 -1506 315 -423 838 -661 1349 -614 590 53 1065 398 1293 940 158 376 158
817 -2 1189 -226 530 -701 874 -1284 931 -114 11 -147 11 -271 -1z m348 -104
c268 -40 490 -137 692 -300 407 -328 607 -852 520 -1360 -26 -152 -52 -237
-111 -363 -105 -226 -223 -377 -411 -529 -96 -77 -151 -111 -279 -173 -496
-237 -1084 -169 -1509 175 -407 328 -607 852 -520 1360 26 152 52 237 111 363
105 226 223 377 411 529 98 79 153 112 288 176 255 120 540 163 808 122z"/>
<path d="M4017 3603 c4 -10 30 -70 58 -133 l51 -115 -520 0 c-517 0 -521 0
-562 -22 -99 -53 -139 -144 -132 -302 5 -110 24 -158 82 -209 68 -60 90 -62
610 -62 261 0 486 4 504 9 17 5 32 8 32 6 0 -2 -63 -155 -117 -284 -4 -8 28
10 70 40 594 421 737 523 737 528 0 3 -28 25 -63 48 -34 22 -116 78 -182 123
-396 272 -574 389 -568 373z m446 -403 c115 -79 205 -146 200 -150 -7 -6 -289
-205 -386 -273 -16 -10 -30 -17 -33 -15 -2 3 23 70 56 149 l60 144 -39 90
c-22 50 -51 116 -66 149 -17 37 -21 57 -13 53 8 -2 107 -69 221 -147z m-320
21 l42 -40 3 -115 4 -115 -40 -43 -41 -43 -505 -3 -506 -3 -43 40 -42 40 -3
114 -4 114 33 38 c18 20 42 41 53 45 12 5 243 9 514 9 l493 1 42 -39z"/>
</g>
</svg>
