<svg width="23" height="21" viewBox="0 0 23 21" fill="none" xmlns="http://www.w3.org/2000/svg">
<path d="M22.1737 2.73583C21.9508 2.48033 21.63 2.33333 21.2917 2.33333H5.1695L4.942 0.975333C4.84867 0.413 4.36217 0 3.79167 0H1.16667C0.5215 0 0 0.5215 0 1.16667C0 1.81183 0.5215 2.33333 1.16667 2.33333H2.8035L4.9735 15.358C4.98283 15.4105 5.00967 15.4537 5.026 15.5027C5.04467 15.5645 5.05983 15.6228 5.089 15.6788C5.12633 15.7558 5.1765 15.8212 5.229 15.8877C5.26517 15.9332 5.29783 15.9787 5.33983 16.0183C5.4075 16.0813 5.48567 16.1257 5.565 16.17C5.60933 16.1945 5.64783 16.2272 5.69567 16.2458C5.831 16.3007 5.97333 16.3333 6.12383 16.3333C6.125 16.3333 18.9583 16.3333 18.9583 16.3333C19.6035 16.3333 20.125 15.8118 20.125 15.1667C20.125 14.5215 19.6035 14 18.9583 14H7.11317L6.9195 12.8333H20.125C20.706 12.8333 21.1983 12.4063 21.28 11.8323L22.4467 3.66567C22.4945 3.32967 22.3942 2.99017 22.1737 2.73583ZM19.9465 4.66667L19.614 7H15.4583V4.66667H19.9465ZM14.2917 4.66667V7H10.7917V4.66667H14.2917ZM14.2917 8.16667V10.5H10.7917V8.16667H14.2917ZM9.625 4.66667V7H6.125C6.06317 7 6.00717 7.0175 5.95233 7.035L5.558 4.66667H9.625ZM6.14133 8.16667H9.625V10.5H6.52983L6.14133 8.16667ZM15.4583 10.5V8.16667H19.446L19.1135 10.5H15.4583Z" fill="white"/>
<path d="M7.87503 21C8.84153 21 9.62503 20.2165 9.62503 19.25C9.62503 18.2835 8.84153 17.5 7.87503 17.5C6.90853 17.5 6.12503 18.2835 6.12503 19.25C6.12503 20.2165 6.90853 21 7.87503 21Z" fill="white"/>
<path d="M18.375 21C19.3415 21 20.125 20.2165 20.125 19.25C20.125 18.2835 19.3415 17.5 18.375 17.5C17.4085 17.5 16.625 18.2835 16.625 19.25C16.625 20.2165 17.4085 21 18.375 21Z" fill="white"/>
</svg>
