<svg width="64" height="30" viewBox="0 0 64 30" fill="none" xmlns="http://www.w3.org/2000/svg">
<path d="M58.7679 5.91211C58.5108 5.54492 58.0886 5.32461 57.648 5.32461H49.1108V1.68945C49.1108 0.936719 48.4866 0.3125 47.7339 0.3125H16.7983C16.0456 0.3125 15.4214 0.936719 15.4214 1.68945V23.941C15.4214 24.6938 16.0456 25.318 16.7983 25.318H20.6905C21.4065 27.8148 23.7198 29.6691 26.437 29.6691C29.1542 29.6691 31.4675 27.8332 32.1835 25.318H47.4401C48.1562 27.8148 50.4694 29.6691 53.1866 29.6691C55.9038 29.6691 58.2171 27.8332 58.9331 25.318H61.7788C62.5315 25.318 63.1558 24.6938 63.1558 23.941V12.6133C63.1558 12.3195 63.064 12.0441 62.8987 11.8238L58.7679 5.91211ZM60.4202 13.0172H54.2515V8.09687H56.9503L60.4202 13.0172ZM18.1753 3.08477H46.3569V22.5824H32.312C31.7796 19.8102 29.3562 17.7172 26.437 17.7172C23.5179 17.7172 21.0761 19.8102 20.562 22.5824H18.1753V3.08477ZM26.437 26.9152C24.6562 26.9152 23.2058 25.4648 23.2058 23.684C23.2058 21.9031 24.6562 20.4527 26.437 20.4527C28.2179 20.4527 29.6683 21.9031 29.6683 23.684C29.6683 25.4648 28.2179 26.9152 26.437 26.9152ZM53.205 26.9152C51.4241 26.9152 49.9737 25.4648 49.9737 23.684C49.9737 21.9031 51.4241 20.4527 53.205 20.4527C54.9858 20.4527 56.4362 21.9031 56.4362 23.684C56.4362 25.4648 54.9858 26.9152 53.205 26.9152ZM59.08 22.5824C58.5476 19.8102 56.1241 17.7172 53.205 17.7172C51.6261 17.7172 50.1757 18.3414 49.1108 19.3512V8.09687H51.4792V14.3941C51.4792 15.1469 52.1034 15.7711 52.8562 15.7711H60.4386V22.5824H59.08Z" fill="#500191"/>
<path d="M2.18433 3.08477H12.0066C12.7593 3.08477 13.3835 2.46055 13.3835 1.70781C13.3835 0.955079 12.7593 0.33086 12.0066 0.33086H2.18433C1.43159 0.33086 0.807373 0.955079 0.807373 1.70781C0.807373 2.46055 1.43159 3.08477 2.18433 3.08477Z" fill="#500191"/>
<path d="M12.0067 5.34297H4.44263C3.68989 5.34297 3.06567 5.96719 3.06567 6.71992C3.06567 7.47266 3.68989 8.09687 4.44263 8.09687H12.0067C12.7594 8.09687 13.3836 7.47266 13.3836 6.71992C13.3836 5.96719 12.7778 5.34297 12.0067 5.34297Z" fill="#500191"/>
<path d="M12.0066 10.3551H7.23315C6.48042 10.3551 5.8562 10.9793 5.8562 11.732C5.8562 12.4848 6.48042 13.109 7.23315 13.109H12.0066C12.7593 13.109 13.3835 12.4848 13.3835 11.732C13.3835 10.9793 12.7777 10.3551 12.0066 10.3551Z" fill="#500191"/>
<path d="M12.0066 15.3672H10.3542C9.60151 15.3672 8.97729 15.9914 8.97729 16.7441C8.97729 17.4969 9.60151 18.1211 10.3542 18.1211H12.0066C12.7593 18.1211 13.3835 17.4969 13.3835 16.7441C13.3835 15.9914 12.7777 15.3672 12.0066 15.3672Z" fill="#500191"/>
<g clip-path="url(#clip0_25_361)">
<path d="M29.8408 3.98721C29.8081 4.1115 29.7376 4.16786 29.6177 4.16786C29.2276 4.16841 28.8376 4.16786 28.4475 4.16805C28.3662 4.16805 28.2947 4.14069 28.2305 4.09277C28.1774 4.05348 28.1556 3.99877 28.155 3.93305C28.1517 3.57228 28.1455 3.21152 28.1446 2.85076C28.144 2.63908 28.1506 2.42721 28.1558 2.21534C28.1598 2.04625 28.3021 1.90874 28.4697 1.90893C28.8857 1.90929 29.3019 1.90911 29.718 1.91095C29.7539 1.91095 29.7785 1.90085 29.7982 1.87166C29.9017 1.7178 30.0057 1.5645 30.1092 1.41084C30.1478 1.35355 30.1812 1.29205 30.225 1.23954C30.3468 1.09395 30.3609 0.928535 30.3336 0.749531C30.3159 0.634785 30.3077 0.518386 30.3011 0.402355C30.297 0.334426 30.3297 0.279898 30.3828 0.235469C30.5502 0.0948357 30.787 0.0928162 30.9809 0.235469C31.1999 0.396664 31.3097 0.621933 31.347 0.885758C31.3795 1.11598 31.3466 1.34162 31.2877 1.56432C31.2838 1.57919 31.28 1.59406 31.2763 1.60893C31.2758 1.61187 31.2763 1.61499 31.2763 1.62399C31.2925 1.62399 31.3084 1.62399 31.3244 1.62399C31.6549 1.6238 31.9853 1.6238 32.3156 1.62362C32.5255 1.62344 32.6953 1.75581 32.7287 1.95042C32.7526 2.08811 32.6999 2.20359 32.6097 2.30347C32.5879 2.3277 32.5833 2.34643 32.5912 2.37929C32.6332 2.55389 32.5855 2.71031 32.4833 2.85186C32.4605 2.88326 32.4506 2.90896 32.4555 2.95045C32.4768 3.12836 32.4328 3.29065 32.3248 3.43532C32.3112 3.4535 32.3017 3.48287 32.3052 3.50491C32.3555 3.8194 32.135 4.01383 31.8792 4.03604C31.7136 4.05055 31.5462 4.04449 31.3795 4.04486C30.9451 4.04577 30.5107 4.04449 30.0763 4.04559C29.9937 4.04577 29.9153 4.03531 29.8408 3.98721ZM32.3079 2.94935C32.2868 2.94935 32.2688 2.94935 32.2508 2.94935C32.0213 2.94953 31.7918 2.94972 31.5623 2.94953C31.5348 2.94953 31.5067 2.95155 31.4799 2.9466C31.4412 2.93925 31.4177 2.91392 31.4199 2.87206C31.4221 2.83093 31.4456 2.80762 31.4862 2.80303C31.5029 2.80101 31.5198 2.80156 31.5366 2.80156C31.7906 2.80174 32.0445 2.80211 32.2986 2.80119C32.3151 2.80119 32.338 2.7966 32.3472 2.7854C32.4329 2.67984 32.4776 2.5616 32.4513 2.42262C32.4443 2.38572 32.4273 2.37397 32.3894 2.37434C32.1476 2.37599 31.9058 2.37525 31.6641 2.37507C31.5869 2.37507 31.5493 2.34992 31.5508 2.29943C31.5522 2.25078 31.5879 2.22783 31.6635 2.22783C31.9205 2.22746 32.1776 2.22764 32.4346 2.22691C32.4524 2.22691 32.4737 2.22673 32.4873 2.21773C32.5925 2.14686 32.6178 1.9708 32.5378 1.87202C32.4783 1.79877 32.3993 1.77086 32.3068 1.77105C31.9534 1.77196 31.6 1.7716 31.2466 1.77178C31.1048 1.77178 31.0889 1.75195 31.1237 1.61554C31.1768 1.40863 31.2249 1.20099 31.2098 0.984715C31.1957 0.783129 31.1351 0.599351 30.998 0.447519C30.9034 0.342871 30.7914 0.268883 30.6422 0.278246C30.5054 0.287058 30.4358 0.362515 30.4472 0.496722C30.4567 0.608164 30.4735 0.719054 30.4881 0.829945C30.5094 0.992426 30.4746 1.1404 30.3789 1.27424C30.3336 1.33777 30.2899 1.40276 30.2474 1.46848C30.1232 1.66181 30.0073 1.86101 29.8533 2.0334C29.8424 2.04534 29.8375 2.06645 29.8375 2.08334C29.8366 2.64385 29.8366 3.20436 29.8371 3.76487C29.8371 3.7792 29.8391 3.79847 29.8481 3.80728C29.8984 3.85575 29.9546 3.89688 30.0284 3.89688C30.619 3.89743 31.2095 3.89761 31.8001 3.89688C31.889 3.89669 31.9729 3.87485 32.0472 3.82381C32.1497 3.75331 32.1946 3.61139 32.1471 3.50582C31.9541 3.50582 31.7599 3.50601 31.5656 3.50582C31.4893 3.50582 31.4127 3.50693 31.3362 3.50491C31.2945 3.50362 31.2649 3.47314 31.2655 3.43496C31.2658 3.39438 31.2879 3.36905 31.3277 3.36134C31.3424 3.3584 31.358 3.3584 31.3732 3.3584C31.6334 3.35821 31.8934 3.35858 32.1535 3.35748C32.1728 3.3573 32.2 3.35216 32.2101 3.33894C32.2969 3.22548 32.3272 3.09641 32.3079 2.94935ZM29.6868 2.05745C29.6642 2.05745 29.6447 2.05745 29.6252 2.05745C29.2428 2.05709 28.8606 2.05672 28.4782 2.05635C28.3807 2.05635 28.3026 2.12997 28.3025 2.22764C28.3014 2.78467 28.3012 3.34187 28.3014 3.8989C28.3015 3.96958 28.3137 3.98555 28.3812 4.00814C28.4038 4.01585 28.429 4.01915 28.453 4.0197C28.5279 4.02117 28.6028 4.02025 28.6777 4.02044C28.9913 4.02044 29.3047 4.02062 29.6183 4.02044C29.6746 4.02044 29.6891 4.00557 29.6893 3.94975C29.6895 3.8899 29.6893 3.83005 29.6893 3.7702C29.6893 3.21777 29.6893 2.66515 29.6893 2.11253C29.6893 2.09601 29.6879 2.07948 29.6868 2.05745Z" fill="#500191"/>
</g>
<defs>
<clipPath id="clip0_25_361">
<rect width="4.58984" height="4.03906" fill="white" transform="translate(28.1445 0.128906)"/>
</clipPath>
</defs>
</svg>
