<svg width="48" height="48" viewBox="0 0 48 48" fill="none" xmlns="http://www.w3.org/2000/svg">
<path d="M17.7392 45.8479C17.3975 47.325 16.6602 47.9948 15.4064 47.9948C11.3264 48.0014 7.24834 47.9948 3.16834 47.997C2.31778 47.997 1.5709 47.6719 0.898898 47.1025C0.344018 46.6356 0.115538 45.9854 0.109778 45.2043C0.0752176 40.917 0.00993763 36.6297 0.000337629 32.3425C-0.00542237 29.8268 0.0636976 27.309 0.117458 24.7912C0.159698 22.7817 1.6477 21.1476 3.40066 21.1497C7.75138 21.1541 12.104 21.1519 16.4547 21.1737C16.8311 21.1737 17.0883 21.0537 17.2938 20.7068C18.3767 18.8785 19.4634 17.0567 20.5463 15.2305C20.9495 14.5497 21.2989 13.8188 21.7578 13.1948C23.0307 11.4647 23.1786 9.49883 22.8925 7.37156C22.7082 6.00793 22.6218 4.62465 22.5527 3.24574C22.5104 2.43847 22.8522 1.79047 23.4071 1.26247C25.1581 -0.408802 27.6349 -0.432802 29.6624 1.26247C31.953 3.17811 33.1011 5.8552 33.4909 8.99047C33.8307 11.7265 33.4871 14.4079 32.8707 17.0545C32.8304 17.2312 32.7901 17.4079 32.7517 17.5847C32.7459 17.6196 32.7517 17.6567 32.7517 17.7636C32.9207 17.7636 33.0877 17.7636 33.2547 17.7636C36.7107 17.7614 40.1667 17.7614 43.6208 17.7592C45.8154 17.757 47.5914 19.3301 47.9408 21.6428C48.1904 23.2792 47.6394 24.6516 46.6967 25.8385C46.4682 26.1265 46.4202 26.349 46.5027 26.7396C46.9424 28.8145 46.4432 30.6734 45.3738 32.3556C45.1357 32.7286 45.032 33.0341 45.0839 33.5272C45.3066 35.6414 44.8458 37.5701 43.7168 39.2894C43.5747 39.5054 43.4749 39.8545 43.5114 40.1163C44.0375 43.8537 41.7315 46.1643 39.057 46.4283C37.3251 46.6007 35.5741 46.5286 33.8307 46.533C29.288 46.5439 24.7453 46.5286 20.2026 46.5417C19.3386 46.5439 18.5187 46.4196 17.7392 45.8479ZM43.5402 33.5141C43.3194 33.5141 43.1312 33.5141 42.9431 33.5141C40.5431 33.5163 38.1431 33.5185 35.7431 33.5163C35.4551 33.5163 35.1613 33.5403 34.881 33.4814C34.4759 33.3941 34.2301 33.093 34.2531 32.5956C34.2762 32.1068 34.5219 31.8297 34.9463 31.7752C35.121 31.7512 35.2976 31.7577 35.4743 31.7577C38.1296 31.7599 40.785 31.7643 43.4423 31.7534C43.6151 31.7534 43.8551 31.6988 43.9511 31.5657C44.8477 30.3112 45.3143 28.9061 45.0397 27.2545C44.9667 26.8159 44.7882 26.6763 44.3927 26.6806C41.864 26.7003 39.3354 26.6916 36.8067 26.6894C36.0003 26.6894 35.6067 26.3905 35.6221 25.7905C35.6375 25.2123 36.0099 24.9396 36.801 24.9396C39.489 24.9352 42.177 24.9374 44.865 24.9286C45.0512 24.9286 45.2739 24.9265 45.416 24.8196C46.5162 23.9774 46.7811 21.885 45.944 20.7112C45.3219 19.8407 44.4963 19.509 43.5287 19.5112C39.8327 19.5221 36.1367 19.5177 32.4407 19.5199C30.9584 19.5199 30.7914 19.2843 31.1562 17.6632C31.7111 15.2043 32.2141 12.7367 32.0567 10.1665C31.9088 7.77083 31.2752 5.58683 29.841 3.78247C28.8522 2.53883 27.681 1.65956 26.12 1.77083C24.6896 1.87556 23.9619 2.77229 24.081 4.3672C24.1808 5.69156 24.3555 7.00938 24.5091 8.3272C24.7319 10.2581 24.3671 12.0167 23.3667 13.6072C22.8925 14.3621 22.4355 15.1345 21.992 15.9156C20.6922 18.213 19.4807 20.5803 17.8698 22.629C17.7565 22.7708 17.7047 23.0217 17.7047 23.2225C17.6951 29.8836 17.6951 36.5447 17.7008 43.2057C17.7008 43.3759 17.7219 43.605 17.816 43.7097C18.3421 44.2857 18.9296 44.7745 19.7015 44.7745C25.8781 44.781 32.0528 44.7832 38.2295 44.7745C39.1587 44.7723 40.0362 44.5126 40.8138 43.9061C41.8851 43.0683 42.3555 41.3817 41.8583 40.1272C39.8403 40.1272 37.809 40.1294 35.7776 40.1272C34.9789 40.1272 34.1783 40.1403 33.3776 40.1163C32.9418 40.101 32.6327 39.7388 32.6384 39.285C32.6423 38.8028 32.8727 38.5017 33.2893 38.4101C33.4429 38.3752 33.6061 38.3752 33.7655 38.3752C36.4861 38.373 39.2048 38.3774 41.9255 38.3643C42.1271 38.3621 42.4112 38.301 42.5168 38.1439C43.425 36.7956 43.7418 35.2617 43.5402 33.5141ZM16.1283 22.9148C15.8922 22.9148 15.6887 22.9148 15.4851 22.9148C11.4858 22.9105 7.48834 22.9061 3.48898 22.9017C2.46946 22.9017 1.65346 23.7766 1.65154 24.9374C1.64002 31.557 1.6381 38.1788 1.64002 44.7985C1.64194 45.6385 1.76866 45.8283 2.47522 46.0966C2.71138 46.1883 2.97442 46.2276 3.22594 46.2341C4.0093 46.2516 4.79266 46.2406 5.57602 46.2428C8.85538 46.2428 12.1328 46.245 15.4122 46.2428C16.0016 46.2428 16.1533 46.0661 16.1552 45.4028C16.1571 44.6916 16.1552 43.9803 16.1552 43.269C16.1552 36.7039 16.1552 30.1367 16.1552 23.5694C16.1552 23.373 16.1399 23.1767 16.1283 22.9148Z" fill="#500191"/>
</svg>
