<svg width="27" height="39" viewBox="0 0 27 39" fill="none" xmlns="http://www.w3.org/2000/svg">
<path d="M13.0086 32.0506C13.1724 32.1052 13.3362 32.1325 13.5 32.1325C13.6638 32.1325 13.8276 32.1188 13.9778 32.0506C14.1143 32.0096 27 27.4505 27 13.4864C27 6.06067 20.9393 0 13.5 0C6.06067 0 0 6.06067 0 13.4864C0 27.4505 12.8857 32.0096 13.0086 32.0506ZM13.5 6.15622C17.5131 6.15622 20.7755 9.41861 20.7755 13.4318C20.7755 17.4312 17.5131 20.7073 13.5 20.7073C9.48686 20.7073 6.22447 17.4312 6.22447 13.4318C6.22447 9.41861 9.48686 6.15622 13.5 6.15622Z" fill="black"/>
<path d="M21.4444 29.7843C20.7483 29.3339 19.8064 29.5386 19.356 30.2348C18.9055 30.9309 19.1103 31.8728 19.8064 32.3232C20.3661 32.6781 20.5435 32.9784 20.5435 33.074C20.5435 33.62 18.1138 35.2034 13.4864 35.2034C8.85901 35.2034 6.44293 33.62 6.44293 33.074C6.44293 32.9784 6.62038 32.6781 7.18004 32.3232C7.8762 31.8728 8.08095 30.9446 7.6305 30.2348C7.18004 29.5386 6.25183 29.3339 5.54202 29.7843C3.78115 30.9173 3.4126 32.2004 3.4126 33.074C3.42625 36.4456 8.49045 38.2201 13.5001 38.2201C18.5097 38.2201 23.5739 36.4456 23.5739 33.074C23.5739 32.2004 23.2053 30.9036 21.4444 29.7843Z" fill="black"/>
</svg>
