<svg width="48" height="48" viewBox="0 0 48 48" fill="none" xmlns="http://www.w3.org/2000/svg">
<path d="M24 43.5C20.1433 43.5 16.3731 42.3564 13.1664 40.2137C9.95963 38.071 7.46027 35.0255 5.98436 31.4623C4.50845 27.8992 4.12228 23.9784 4.8747 20.1957C5.62711 16.4131 7.4843 12.9386 10.2114 10.2114C12.9386 7.4843 16.4131 5.62711 20.1957 4.8747C23.9784 4.12228 27.8992 4.50845 31.4623 5.98436C35.0255 7.46027 38.071 9.95963 40.2137 13.1664C42.3564 16.3731 43.5 20.1433 43.5 24C43.5 29.1717 41.4455 34.1316 37.7886 37.7886C34.1316 41.4455 29.1717 43.5 24 43.5ZM24 7.50001C20.7366 7.50001 17.5465 8.46772 14.8331 10.2808C12.1197 12.0938 10.0048 14.6708 8.756 17.6857C7.50715 20.7007 7.1804 24.0183 7.81705 27.219C8.45371 30.4197 10.0252 33.3597 12.3327 35.6673C14.6403 37.9748 17.5803 39.5463 20.781 40.183C23.9817 40.8196 27.2993 40.4929 30.3143 39.244C33.3293 37.9952 35.9062 35.8803 37.7193 33.1669C39.5323 30.4535 40.5 27.2634 40.5 24C40.5 19.6239 38.7616 15.4271 35.6673 12.3327C32.5729 9.2384 28.3761 7.50001 24 7.50001Z" fill="#500191"/>
<path d="M32.25 33.75C32.0526 33.7511 31.8569 33.7133 31.6742 33.6387C31.4914 33.564 31.3252 33.454 31.185 33.315L22.935 25.065C22.796 24.9248 22.686 24.7586 22.6114 24.5759C22.5367 24.3931 22.4989 24.1974 22.5 24V12C22.5 11.6022 22.6581 11.2206 22.9394 10.9393C23.2207 10.658 23.6022 10.5 24 10.5C24.3978 10.5 24.7794 10.658 25.0607 10.9393C25.342 11.2206 25.5 11.6022 25.5 12V23.385L33.315 31.185C33.4556 31.3244 33.5672 31.4903 33.6434 31.6731C33.7195 31.8559 33.7587 32.052 33.7587 32.25C33.7587 32.448 33.7195 32.6441 33.6434 32.8269C33.5672 33.0097 33.4556 33.1756 33.315 33.315C33.1749 33.454 33.0086 33.564 32.8259 33.6387C32.6431 33.7133 32.4474 33.7511 32.25 33.75Z" fill="#500191"/>
</svg>
