<svg width="37" height="40" viewBox="0 0 37 40" fill="none" xmlns="http://www.w3.org/2000/svg">
<path d="M17.6 0C17.2 0 16.8 0.2 16.6 0.4L13.8 3L10.6 2.4C9.6 2.2 9 2.8 8.8 3.6L8.2 7.2L4.8 8.8C4 9.2 3.8 10 4.2 10.8L5.8 14L4.2 17.2C3.8 18 4.2 18.8 4.8 19.2L8.2 20.8L8.8 24.4C9 25.2 9.8 25.8 10.6 25.6L14.4 25L17.2 27.6C17.8 28.2 18.8 28.2 19.4 27.6L22.2 25L26 25.6C26.8 25.8 27.6 25.2 27.8 24.4L28.4 20.8L31.8 19.2C32.6 18.8 32.8 18 32.4 17.2L30.2 14L31.8 10.8C32.2 10 32 9.2 31.2 8.8L27.8 7.2L27.2 3.6C27 2.8 26.2 2.2 25.4 2.4L21.6 3L18.8 0.4C18.6 8.9407e-08 18 0 17.6 0ZM6.2 22.2L0 34.6L7.2 33.6L10.8 40L16 29.4L15.6 29L13.6 27.2L10.8 27.6C9 27.8 7.2 26.6 6.8 24.8L6.2 22.2ZM29.8 22.2L29.2 24.8C28.8 26.4 27.4 27.6 25.8 27.6H25.4L22.6 27.2L20.6 29L20.2 29.4L25.4 40L29 33.8L36.2 34.8L29.8 22.2Z" fill="#500191"/>
</svg>
