<svg width="48" height="48" viewBox="0 0 48 48" fill="none" xmlns="http://www.w3.org/2000/svg">
<path d="M0 23.9999C0 37.2549 10.7451 48 24.0001 48C37.255 48 48.0001 37.2549 48.0001 23.9999C48.0001 10.745 37.255 -0.000100315 24.0001 -0.000100315C10.7451 -0.000100315 0 10.745 0 23.9999" fill="url(#paint0_linear_41_528)"/>
<path d="M16.2456 25.7541L19.0931 33.6355C19.0931 33.6355 19.449 34.3726 19.8304 34.3726C20.2117 34.3726 25.8812 28.4742 25.8812 28.4742L32.1863 16.2963L16.3473 23.72L16.2456 25.7541Z" fill="#C8DAEA"/>
<path d="M20.0211 27.7753L19.4744 33.5845C19.4744 33.5845 19.2456 35.3642 21.0253 33.5845C22.8049 31.8049 24.5083 30.432 24.5083 30.432" fill="#A9C6D8"/>
<path d="M16.297 26.0355L10.4404 24.1271C10.4404 24.1271 9.7413 23.8434 9.96585 23.1992C10.0122 23.0664 10.1056 22.9535 10.3852 22.7585C11.6833 21.854 34.4064 13.6865 34.4064 13.6865C34.4064 13.6865 35.0481 13.4705 35.4275 13.614C35.6007 13.6797 35.7114 13.754 35.8045 14.0249C35.8385 14.1235 35.858 14.3332 35.8554 14.5419C35.8534 14.6924 35.8351 14.8317 35.8216 15.0504C35.6833 17.2836 31.5423 33.949 31.5423 33.949C31.5423 33.949 31.2946 34.9243 30.4068 34.9574C30.083 34.9696 29.69 34.9039 29.2202 34.4998C27.4782 33.0012 21.4564 28.9543 20.126 28.0645C20.0507 28.0145 20.0296 27.9492 20.0168 27.8855C19.9981 27.792 20.0981 27.6752 20.0981 27.6752C20.0981 27.6752 30.5833 18.3549 30.8624 17.377C30.8839 17.3011 30.8028 17.2637 30.6927 17.2964C29.9963 17.5527 17.9239 25.1758 16.5917 26.0178C16.5138 26.067 16.2954 26.0353 16.2954 26.0353" fill="white"/>
<defs>
<linearGradient id="paint0_linear_41_528" x1="24" y1="47.9998" x2="24" y2="-0.000302572" gradientUnits="userSpaceOnUse">
<stop stop-color="#21048C"/>
<stop offset="1" stop-color="#21048C"/>
</linearGradient>
</defs>
</svg>
