<svg width="33" height="33" viewBox="0 0 33 33" fill="none" xmlns="http://www.w3.org/2000/svg">
<path d="M16.5 32.3438C13.3664 32.3438 10.3032 31.4145 7.69769 29.6736C5.0922 27.9327 3.06147 25.4582 1.86229 22.5631C0.663115 19.6681 0.349356 16.4824 0.96069 13.409C1.57203 10.3357 3.081 7.51257 5.29678 5.29678C7.51257 3.081 10.3357 1.57203 13.409 0.96069C16.4824 0.349356 19.6681 0.663115 22.5631 1.86229C25.4582 3.06147 27.9327 5.0922 29.6736 7.69769C31.4145 10.3032 32.3438 13.3664 32.3438 16.5C32.3438 20.702 30.6745 24.732 27.7032 27.7032C24.732 30.6745 20.702 32.3438 16.5 32.3438ZM16.5 3.09376C13.8485 3.09376 11.2565 3.88002 9.05189 5.35312C6.84725 6.82621 5.12893 8.91999 4.11425 11.3697C3.09956 13.8193 2.83407 16.5149 3.35135 19.1154C3.86864 21.716 5.14546 24.1048 7.02036 25.9797C8.89526 27.8546 11.284 29.1314 13.8846 29.6487C16.4851 30.1659 19.1807 29.9005 21.6304 28.8858C24.08 27.8711 26.1738 26.1528 27.6469 23.9481C29.12 21.7435 29.9063 19.1515 29.9063 16.5C29.9063 12.9444 28.4938 9.53452 25.9797 7.02036C23.4655 4.5062 20.0556 3.09376 16.5 3.09376Z" fill="black"/>
<path d="M23.2031 24.4219C23.0427 24.4228 22.8837 24.3921 22.7353 24.3314C22.5868 24.2708 22.4517 24.1814 22.3378 24.0684L15.6347 17.3653C15.5218 17.2514 15.4324 17.1164 15.3717 16.9679C15.3111 16.8194 15.2803 16.6604 15.2813 16.5V6.75C15.2813 6.42677 15.4097 6.11677 15.6382 5.88821C15.8668 5.65965 16.1768 5.53125 16.5 5.53125C16.8233 5.53125 17.1332 5.65965 17.3618 5.88821C17.5904 6.11677 17.7188 6.42677 17.7188 6.75V16.0003L24.0685 22.3378C24.1827 22.4511 24.2734 22.5859 24.3352 22.7344C24.3971 22.8829 24.429 23.0422 24.429 23.2031C24.429 23.364 24.3971 23.5233 24.3352 23.6718C24.2734 23.8203 24.1827 23.9551 24.0685 24.0684C23.9546 24.1814 23.8195 24.2708 23.671 24.3314C23.5225 24.3921 23.3635 24.4228 23.2031 24.4219Z" fill="black"/>
</svg>
