<svg width="32" height="34" viewBox="0 0 32 34" fill="none" xmlns="http://www.w3.org/2000/svg">
<path d="M24.4648 13.0276C24.4696 10.0882 23.5376 7.2338 21.8209 4.92974C20.1041 2.62567 17.7039 1.00786 15.0114 0.340077C12.319 -0.32771 9.49319 -0.00608635 6.99472 1.25251C4.49626 2.51111 2.4725 4.63244 1.25341 7.27065C0.0343204 9.90886 -0.308202 12.9083 0.281689 15.78C0.871579 18.6518 2.35909 21.2263 4.5017 23.084C6.6443 24.9416 9.31563 25.9728 12.0801 26.0094C14.8447 26.046 17.5393 25.0858 19.7247 23.2855L29.5107 33.6896L31.6666 31.3975L21.8807 20.9933C23.5497 18.7165 24.4588 15.9142 24.4648 13.0276ZM12.2324 22.7815C10.4179 22.7815 8.64414 22.2095 7.13543 21.1377C5.62672 20.0659 4.45083 18.5426 3.75645 16.7603C3.06207 14.978 2.88038 13.0168 3.23438 11.1247C3.58837 9.23265 4.46214 7.49467 5.74519 6.13056C7.02824 4.76645 8.66294 3.83748 10.4426 3.46112C12.2222 3.08477 14.0669 3.27793 15.7433 4.01618C17.4196 4.75443 18.8525 6.00461 19.8606 7.60863C20.8686 9.21266 21.4067 11.0985 21.4067 13.0276C21.4067 15.6145 20.4401 18.0955 18.7196 19.9247C16.9991 21.7539 14.6656 22.7815 12.2324 22.7815Z" fill="black"/>
</svg>
