<svg width="38" height="37" viewBox="0 0 38 37" fill="none" xmlns="http://www.w3.org/2000/svg">
<path d="M26.8558 17.1786C27.2185 17.1786 27.5105 17.4732 27.5105 17.8393V29.7321C27.5105 30.0982 27.2185 30.3929 26.8558 30.3929C26.4931 30.3929 26.2011 30.0982 26.2011 29.7321V17.8393C26.2011 17.4732 26.4931 17.1786 26.8558 17.1786ZM18.9994 17.1786C19.3621 17.1786 19.6541 17.4732 19.6541 17.8393V29.7321C19.6541 30.0982 19.3621 30.3929 18.9994 30.3929C18.6367 30.3929 18.3447 30.0982 18.3447 29.7321V17.8393C18.3447 17.4732 18.6367 17.1786 18.9994 17.1786ZM11.143 17.1786C11.5057 17.1786 11.7977 17.4732 11.7977 17.8393V29.7321C11.7977 30.0982 11.5057 30.3929 11.143 30.3929C10.7803 30.3929 10.4883 30.0982 10.4883 29.7321V17.8393C10.4883 17.4732 10.7803 17.1786 11.143 17.1786ZM24.271 0C24.4412 0 24.6023 0.0766428 24.7202 0.198214L32.5635 8.12679C33.1422 8.71482 32.223 9.65304 31.6377 9.06236L23.7944 1.13379C23.3728 0.713571 23.6045 0 24.271 0ZM13.7277 0C13.5575 0 13.3965 0.0766428 13.2786 0.198214L5.43531 8.12679C4.85655 8.71482 5.77575 9.65304 6.36105 9.06236L14.2044 1.13379C14.6286 0.713571 14.3955 0 13.729 0H13.7277ZM1.97718 10.5714C1.43509 10.5714 0.933588 10.7829 0.555172 11.1423C0.175446 11.5017 -0.0811968 12.0673 0.0235552 12.6672L3.95176 35.1315C4.03294 35.594 4.21756 36.0433 4.54491 36.4001C4.87226 36.7542 5.3646 37 5.90669 37H32.0947C32.6368 37 33.1291 36.7542 33.4565 36.3988C33.7838 36.042 33.9671 35.5953 34.0483 35.1302L37.9765 12.6659C38.0813 12.0673 37.8233 11.503 37.4449 11.1423C37.0639 10.7829 36.5637 10.5714 36.0216 10.5714H1.97718ZM1.97718 11.8929H36.0216C36.6763 11.8929 36.7601 12.1637 36.6868 12.4399L32.7586 34.9042C32.6014 35.4909 32.4574 35.6786 32.0934 35.6786H5.90538C5.42745 35.6786 5.36853 35.3879 5.24021 34.9042L1.31201 12.4399C1.23082 12.0039 1.64983 11.8929 1.97718 11.8929Z" fill="black"/>
</svg>
