<svg width="53" height="53" viewBox="0 0 53 53" fill="none" xmlns="http://www.w3.org/2000/svg">
<path d="M35.6094 4.96875H17.3906C16.2925 4.96875 15.2393 5.40499 14.4628 6.18151C13.6862 6.95803 13.25 8.01121 13.25 9.10938V43.8906C13.25 44.9888 13.6862 46.042 14.4628 46.8185C15.2393 47.595 16.2925 48.0312 17.3906 48.0312H35.6094C36.1531 48.0312 36.6916 47.9241 37.1939 47.7161C37.6963 47.508 38.1527 47.203 38.5372 46.8185C38.9217 46.434 39.2267 45.9775 39.4348 45.4752C39.6429 44.9728 39.75 44.4344 39.75 43.8906V9.10938C39.75 8.56562 39.6429 8.02719 39.4348 7.52483C39.2267 7.02246 38.9217 6.566 38.5372 6.18151C38.1527 5.79702 37.6963 5.49202 37.1939 5.28394C36.6916 5.07585 36.1531 4.96875 35.6094 4.96875ZM38.0938 43.8906C38.0938 44.5495 37.832 45.1814 37.3661 45.6473C36.9002 46.1133 36.2683 46.375 35.6094 46.375H17.3906C16.7317 46.375 16.0998 46.1133 15.6339 45.6473C15.168 45.1814 14.9062 44.5495 14.9062 43.8906V9.10938C14.9062 8.45048 15.168 7.81857 15.6339 7.35266C16.0998 6.88675 16.7317 6.625 17.3906 6.625H35.6094C36.2683 6.625 36.9002 6.88675 37.3661 7.35266C37.832 7.81857 38.0938 8.45048 38.0938 9.10938V43.8906Z" fill="black"/>
<path d="M16.5625 39.75H36.4375V11.5938H16.5625V39.75ZM18.2188 13.25H34.7812V38.0938H18.2188V13.25Z" fill="black"/>
<path d="M26.5 44.7188C27.4147 44.7188 28.1562 43.9772 28.1562 43.0625C28.1562 42.1478 27.4147 41.4062 26.5 41.4062C25.5853 41.4062 24.8438 42.1478 24.8438 43.0625C24.8438 43.9772 25.5853 44.7188 26.5 44.7188Z" fill="black"/>
<path d="M29.8125 8.28125H23.1875V9.9375H29.8125V8.28125Z" fill="black"/>
</svg>
