<svg width="48" height="48" viewBox="0 0 48 48" fill="none" xmlns="http://www.w3.org/2000/svg">
<path d="M24 0C10.7449 0 0 10.7449 0 24C0 37.2551 10.7449 48 24 48C37.2551 48 48 37.2551 48 24C48 10.7449 37.2551 0 24 0ZM36.8984 33.1076C35.8742 33.7482 31.7121 33.939 30.7045 33.2069C30.1518 32.8055 29.6464 32.3033 29.1665 31.825C28.8307 31.4906 28.4496 31.3284 28.161 30.9655C27.9255 30.6686 27.7638 30.3182 27.5158 30.025C27.0972 29.5331 26.453 29.1146 25.9435 29.7156C25.1761 30.6198 26.0641 32.3953 25.0409 33.0707C24.6977 33.2974 24.3515 33.3629 23.9225 33.3307L22.9726 33.3738C22.4147 33.3848 21.5308 33.3899 20.896 33.2756C20.1879 33.1477 19.6029 32.7608 18.9624 32.4769C17.7468 31.9378 16.5889 31.2031 15.7076 30.1856C13.3092 27.4144 10.0877 23.6033 8.83622 20.1192C8.57886 19.4033 7.89879 17.9854 8.5435 17.3714C9.4201 16.7345 13.7225 16.5551 14.3938 17.5399C14.6662 17.9402 14.8383 18.5257 15.0312 18.9795C15.2714 19.5452 15.4014 20.0782 15.7768 20.5789C16.109 21.0229 16.3539 21.4695 16.6107 21.9562C16.8993 22.5026 17.1717 23.0267 17.5227 23.5295C17.7608 23.8716 18.3905 24.5522 18.7882 24.6026C19.7594 24.7269 19.6991 22.3669 19.6269 21.7908C19.5577 21.2355 19.54 20.6464 19.5582 20.0834C19.5738 19.6029 19.617 18.926 19.3326 18.534C18.8688 17.8945 17.8357 18.3728 17.7551 17.5133C17.9256 17.2695 17.8898 17.0532 19.0289 16.6778C19.9263 16.383 20.5061 16.3924 21.0977 16.4397C22.304 16.5364 23.583 16.2099 24.7477 16.6009C25.8603 16.9757 25.6882 18.5568 25.6508 19.5042C25.6003 20.7972 25.6544 22.0596 25.6508 23.3724C25.6492 23.9698 25.6253 24.5516 26.3542 24.5028C27.0374 24.4575 27.1071 23.8825 27.4331 23.4083C27.8865 22.747 28.3029 22.0763 28.7646 21.4175C29.387 20.5269 29.5752 19.526 30.1612 18.6135C30.3707 18.2875 30.5511 17.5929 30.874 17.335C31.1184 17.139 31.5827 17.2414 31.8785 17.2414H32.582C33.1201 17.2414 33.6692 17.2373 34.2224 17.2565C35.0189 17.2841 35.9111 17.101 36.7009 17.2128C40.109 17.6938 32.4172 24.9795 32.8175 26.2804C33.0941 27.1789 34.8489 28.1828 35.4822 28.9185C36.3229 29.8986 38.9111 31.8468 36.8984 33.1076Z" fill="#21048C"/>
</svg>
